<svg fill="none" height="15" viewBox="0 0 15 15" width="15" xmlns="http://www.w3.org/2000/svg" xmlns:xlink="http://www.w3.org/1999/xlink"><clipPath id="a"><path d="m.5.5h14v14h-14z"/></clipPath><g clip-path="url(#a)"><path d="m5.50546 3.20978c.0343-.8809.61072-1.73523 1.47573-1.90529.17123-.03366.34424-.05443.51881-.05443s.34758.02077.51881.05443c.86501.17006 1.44143 1.02439 1.47573 1.90529.00318.08158.00637.16335.00958.2453.01328.33953.02668.68221.03924 1.02778.01924.5292.44464.9546.97384.97384.3456.01256.6883.02597 1.0278.03924.082.00321.1637.0064.2453.00958.8809.03431 1.7352.61072 1.9053 1.47573.0336.17123.0544.34424.0544.51881s-.0208.34758-.0544.51881c-.1701.86501-1.0244 1.44143-1.9053 1.47573-.0816.00318-.1633.00637-.2452.00958-.3396.01328-.6823.02668-1.0279.03924-.5292.01924-.9546.44464-.97384.97388-.01256.3456-.02596.6882-.03924 1.0278-.00321.0819-.00641.1637-.00958.2452-.03431.8809-.61072 1.7353-1.47573 1.9053-.17123.0337-.34424.0545-.51881.0545s-.34758-.0208-.51881-.0545c-.86501-.17-1.44143-1.0244-1.47573-1.9053-.00318-.0815-.00637-.1633-.00958-.2452-.01328-.3396-.02668-.6822-.03924-1.0278-.01924-.52924-.44464-.95464-.97384-.97388-.34557-.01256-.68825-.02596-1.02778-.03924-.08195-.0032-.16372-.0064-.2453-.00958-.8809-.0343-1.73523-.61072-1.90529-1.47573-.03366-.17123-.05443-.34424-.05443-.51881s.02077-.34758.05443-.51881c.17006-.86501 1.02439-1.44142 1.90529-1.47573.08156-.00318.16331-.00637.24524-.00958.33955-.01327.68225-.02668 1.02784-.03924.5292-.01924.9546-.44464.97384-.97384.01256-.3456.02596-.6883.03924-1.02787.00321-.08192.0064-.16366.00958-.24521z" fill="#d7e0ff" stroke="#4147d5" stroke-linejoin="round"/></g></svg>